<?xml version="1.0" encoding="utf-8"?>
<!-- Generator: Adobe Illustrator 24.0.1, SVG Export Plug-In . SVG Version: 6.00 Build 0)  -->
<svg version="1.1" id="Layer_1" xmlns="http://www.w3.org/2000/svg" xmlns:xlink="http://www.w3.org/1999/xlink" x="0px" y="0px"
	 viewBox="0 0 512 512" style="enable-background:new 0 0 512 512;" xml:space="preserve">
<style type="text/css">
	.st0{fill:#FFFFFF;}
</style>
<path class="st0" d="M443.7,46c-39.5-20.2-86.9-17.4-123.7,7.3l0,0L55.8,231C0,268.6-14.9,344.4,22.7,400.3
	C60.3,456.2,136.1,471,192,433.4c36.8-24.8,57.3-67.6,53.4-111.8l87-58.5c59.9,30.7,133.4,7.1,164.2-52.9
	C527.3,150.2,503.7,76.7,443.7,46z M176.3,315.1L176.3,315.1l-29.9,20.1l20.1,29.9l-31.4,21.1L115,356.4L85,376.5l-21.1-31.4
	L93.8,325l-20.1-29.9l31.4-21.1l20.1,29.9l29.9-20.1L176.3,315.1z M248.2,250.4l0.2,31.8c0,5-4,9-9,9.1l0,0c-5,0-9-4-9.1-9
	l-0.2-31.8c0-5,4-9,9-9.1C244.1,241.4,248.2,245.4,248.2,250.4z M296.4,218l0.2,31.8c0,5-4,9-9,9.1l0,0c-5,0-9-4-9.1-9l-0.2-31.8
	c0-5,4-9,9-9.1C292.3,209,296.4,213,296.4,218z M371.6,161c6.6,9.8,4,23.1-5.8,29.8c-9.8,6.6-23.2,4-29.8-5.8
	c-6.6-9.8-4-23.2,5.8-29.8C351.6,148.5,364.9,151.1,371.6,161C371.6,161,371.6,161,371.6,161z M439.5,174.3c6.6,9.8,4,23.2-5.8,29.8
	l0,0c-9.8,6.6-23.2,4-29.8-5.8c-6.6-9.8-4-23.2,5.8-29.8C419.6,161.8,432.9,164.4,439.5,174.3C439.5,174.3,439.5,174.3,439.5,174.3z
	 M379.1,122.8C379.1,122.8,379,122.8,379.1,122.8L379.1,122.8c-9.9,6.6-23.2,4-29.8-5.8s-4-23.2,5.8-29.8c9.8-6.6,23.2-4,29.8,5.8
	C391.5,102.8,388.9,116.1,379.1,122.8z M447,136.1C447,136.1,447,136.1,447,136.1L447,136.1c-9.9,6.6-23.2,4-29.8-5.8
	c-6.6-9.8-4-23.2,5.8-29.8c9.8-6.6,23.2-4,29.8,5.8C459.4,116.1,456.8,129.4,447,136.1z"/>
</svg>
