<?xml version="1.0" encoding="utf-8"?>
<!-- Generator: Adobe Illustrator 24.0.1, SVG Export Plug-In . SVG Version: 6.00 Build 0)  -->
<svg version="1.1"
	 id="svg4" inkscape:version="0.92.4 (5da689c313, 2019-01-14)" sodipodi:docname="home.svg" xmlns:cc="http://creativecommons.org/ns#" xmlns:dc="http://purl.org/dc/elements/1.1/" xmlns:inkscape="http://www.inkscape.org/namespaces/inkscape" xmlns:rdf="http://www.w3.org/1999/02/22-rdf-syntax-ns#" xmlns:sodipodi="http://sodipodi.sourceforge.net/DTD/sodipodi-0.dtd" xmlns:svg="http://www.w3.org/2000/svg"
	 xmlns="http://www.w3.org/2000/svg" xmlns:xlink="http://www.w3.org/1999/xlink" x="0px" y="0px" viewBox="0 0 477.1 475"
	 style="enable-background:new 0 0 477.1 475;" xml:space="preserve">
<style type="text/css">
	.st0{fill:#FFFFFF;}
</style>
<sodipodi:namedview  bordercolor="#666666" borderopacity="1" gridtolerance="10" guidetolerance="10" id="namedview6" inkscape:current-layer="svg4" inkscape:cx="268.45295" inkscape:cy="224.33656" inkscape:pagecheckerboard="true" inkscape:pageopacity="0" inkscape:pageshadow="2" inkscape:window-height="2066" inkscape:window-maximized="1" inkscape:window-width="3840" inkscape:window-x="-11" inkscape:window-y="-11" inkscape:zoom="3.3354447" objecttolerance="10" pagecolor="#ffffff" showgrid="false">
	</sodipodi:namedview>
<path id="path2" inkscape:connector-curvature="0" sodipodi:nodetypes="cccccccscscscccsccccssssscccscccscsccsccsccssssssssss" class="st0" d="
	M407.9,133.5c-11.8,2.7-12.5,40.6-2.4,84.7c10.2,44.1,27.4,77.8,39.2,75.1c11.8-2.7,19.3-35.5,9.1-79.6
	C443.7,169.6,419.7,130.8,407.9,133.5L407.9,133.5z M47.9,353c-21.1-25.3-28-60.3-28-104c0-67.4,28.2-123.5,74-165.2
	c39.8-36.3,93.2-56.8,151-56.8c67.8,0,119.8,20.9,161,68.9c34.4,40,64,95.8,64,153c0,41.7-6.7,73.2-26,98
	c-15.8,20.4-37.9,35.7-64,46.8c-0.3,24.1-3.3,50.1-30,65.2c-23.3,13.2-75.2,16-108.2,16c-42.8,0-85.6,0.7-110.2-20
	c-15.8-13.3-22.4-40.5-23.8-60.3C83.6,384.8,63,371.2,47.9,353L47.9,353z M243.9,275c59.6,0,108-48.4,108-108s-48.4-108-108-108
	s-108,48.4-108,108S184.2,275,243.9,275z M44.4,287.9c11.7,3.1,30.1-29.9,41.8-73.7c11.7-43.7,12.3-81.6,0.6-84.7
	c-11.7-3.2-33.7,22.2-45.4,66S32.7,284.7,44.4,287.9L44.4,287.9z M156.2,436.7c19.6,12.9,48.5,11.4,84.1,11.4
	c39.5,0,80.7,0.1,101.1-17c12-10.1,10.9-50.7,10.9-63.8c0-5.4-1.4-13.5-5.5-18.6c-8.6-10.8-20.5-17.3-33.5-23.4
	c-20.2-9.4-35.9-10.9-68.2-10.9c-29.9,0-52.5,2.9-73.7,10.9c-17,6.4-26.3,14.1-32.4,24.9c-2.3,4.1-3.7,12-3.7,17
	C135.4,382.6,141.2,426.9,156.2,436.7L156.2,436.7z"/>
<path class="st0" d="M243.8,323.7L243.8,323.7c-31.1,0-56.4,25.2-56.4,56.4v67l54.2,6.4l58.6-6.4v-67
	C300.2,348.9,275,323.7,243.8,323.7z M218.4,415c-9.1,0-16.5-7.4-16.5-16.5c0-9.1,7.4-16.5,16.5-16.5c9.1,0,16.5,7.4,16.5,16.5
	C234.9,407.7,227.5,415,218.4,415z"/>
<path class="st0" d="M428.5,127.3h-67.6V34.9c0-10.2,8.2-18.4,18.4-18.4h30.8c10.2,0,18.4,8.2,18.4,18.4V127.3z"/>
<path class="st0" d="M429.1,38.6h-68.8c-5.8,0-10.5-4.7-10.5-10.5V10.5c0-5.8,4.7-10.5,10.5-10.5h68.8c5.8,0,10.5,4.7,10.5,10.5
	v17.6C439.7,33.9,434.9,38.6,429.1,38.6z"/>
</svg>
