<?xml version="1.0" encoding="utf-8"?>
<!-- Generator: Adobe Illustrator 24.0.1, SVG Export Plug-In . SVG Version: 6.00 Build 0)  -->
<svg version="1.1"
	 id="Layer_1" inkscape:version="0.92.4 (5da689c313, 2019-01-14)" sodipodi:docname="list.svg" xmlns:cc="http://creativecommons.org/ns#" xmlns:dc="http://purl.org/dc/elements/1.1/" xmlns:inkscape="http://www.inkscape.org/namespaces/inkscape" xmlns:rdf="http://www.w3.org/1999/02/22-rdf-syntax-ns#" xmlns:sodipodi="http://sodipodi.sourceforge.net/DTD/sodipodi-0.dtd" xmlns:svg="http://www.w3.org/2000/svg"
	 xmlns="http://www.w3.org/2000/svg" xmlns:xlink="http://www.w3.org/1999/xlink" x="0px" y="0px" viewBox="0 0 512 512"
	 style="enable-background:new 0 0 512 512;" xml:space="preserve">
<style type="text/css">
	.st0{fill:#FFFFFF;}
	.st1{fill:none;stroke:#FFFFFF;stroke-width:35.2568;stroke-linecap:round;stroke-linejoin:round;}
</style>
<sodipodi:namedview  bordercolor="#666666" borderopacity="1" gridtolerance="10" guidetolerance="10" id="namedview33" inkscape:current-layer="Layer_1" inkscape:cx="289.57591" inkscape:cy="249.49153" inkscape:pagecheckerboard="true" inkscape:pageopacity="0" inkscape:pageshadow="2" inkscape:window-height="2066" inkscape:window-maximized="1" inkscape:window-width="3840" inkscape:window-x="-11" inkscape:window-y="-11" inkscape:zoom="2.2007974" objecttolerance="10" pagecolor="#ffffff" showgrid="false">
	</sodipodi:namedview>
<g>
	<path class="st0" d="M195.6,244.1l247.6,0c12,0,21.7,9.7,21.7,21.7c0,12-9.7,21.7-21.7,21.7l-247.6,0c-12,0-21.7-9.7-21.7-21.7
		C174,253.8,183.7,244.1,195.6,244.1z"/>
	<path class="st1" d="M195.6,244.1l247.6,0c12,0,21.7,9.7,21.7,21.7c0,12-9.7,21.7-21.7,21.7l-247.6,0c-12,0-21.7-9.7-21.7-21.7
		C174,253.8,183.7,244.1,195.6,244.1z"/>
	<path class="st0" d="M64.8,287.8L64.8,287.8c-12.2,0-22-9.9-22-22c0-12.2,9.9-22,22-22c12.2,0,22,9.9,22,22
		C86.8,277.9,76.9,287.8,64.8,287.8z"/>
	<path class="st1" d="M64.8,287.8L64.8,287.8c-12.2,0-22-9.9-22-22c0-12.2,9.9-22,22-22c12.2,0,22,9.9,22,22
		C86.8,277.9,76.9,287.8,64.8,287.8z"/>
	<path class="st0" d="M195.6,94.1l247.6,0c12,0,21.7,9.7,21.7,21.7c0,12-9.7,21.7-21.7,21.7l-247.6,0c-12,0-21.7-9.7-21.7-21.7
		C174,103.8,183.7,94.1,195.6,94.1z"/>
	<path class="st1" d="M195.6,94.1l247.6,0c12,0,21.7,9.7,21.7,21.7c0,12-9.7,21.7-21.7,21.7l-247.6,0c-12,0-21.7-9.7-21.7-21.7
		C174,103.8,183.7,94.1,195.6,94.1z"/>
	<path class="st0" d="M64.8,137.8L64.8,137.8c-12.2,0-22-9.9-22-22s9.9-22,22-22c12.2,0,22,9.9,22,22S76.9,137.8,64.8,137.8z"/>
	<path class="st1" d="M64.8,137.8L64.8,137.8c-12.2,0-22-9.9-22-22s9.9-22,22-22c12.2,0,22,9.9,22,22S76.9,137.8,64.8,137.8z"/>
	<path class="st0" d="M195.6,394.1l247.6,0c12,0,21.7,9.7,21.7,21.7c0,12-9.7,21.7-21.7,21.7l-247.6,0c-12,0-21.7-9.7-21.7-21.7
		C174,403.8,183.7,394.1,195.6,394.1z"/>
	<path class="st1" d="M195.6,394.1l247.6,0c12,0,21.7,9.7,21.7,21.7c0,12-9.7,21.7-21.7,21.7l-247.6,0c-12,0-21.7-9.7-21.7-21.7
		C174,403.8,183.7,394.1,195.6,394.1z"/>
	<path class="st0" d="M64.8,437.8L64.8,437.8c-12.2,0-22-9.9-22-22s9.9-22,22-22c12.2,0,22,9.9,22,22S76.9,437.8,64.8,437.8z"/>
	<path class="st1" d="M64.8,437.8L64.8,437.8c-12.2,0-22-9.9-22-22s9.9-22,22-22c12.2,0,22,9.9,22,22S76.9,437.8,64.8,437.8z"/>
</g>
</svg>
