<?xml version="1.0" encoding="utf-8"?>
<!-- Generator: Adobe Illustrator 24.0.1, SVG Export Plug-In . SVG Version: 6.00 Build 0)  -->
<svg version="1.1"
	 id="Capa_1" inkscape:version="0.92.4 (5da689c313, 2019-01-14)" sodipodi:docname="open.svg" xmlns:cc="http://creativecommons.org/ns#" xmlns:dc="http://purl.org/dc/elements/1.1/" xmlns:inkscape="http://www.inkscape.org/namespaces/inkscape" xmlns:osb="http://www.openswatchbook.org/uri/2009/osb" xmlns:rdf="http://www.w3.org/1999/02/22-rdf-syntax-ns#" xmlns:sodipodi="http://sodipodi.sourceforge.net/DTD/sodipodi-0.dtd" xmlns:svg="http://www.w3.org/2000/svg"
	 xmlns="http://www.w3.org/2000/svg" xmlns:xlink="http://www.w3.org/1999/xlink" x="0px" y="0px" viewBox="0 0 456.8 456.8"
	 style="enable-background:new 0 0 456.8 456.8;" xml:space="preserve">
<style type="text/css">
	.st0{fill:#FFFFFF;}
	.st1{fill:#FFFFFE;}
</style>
<sodipodi:namedview  bordercolor="#666666" borderopacity="1" gridtolerance="10" guidetolerance="10" id="namedview41" inkscape:current-layer="g8" inkscape:cx="52.28313" inkscape:cy="216.79973" inkscape:pagecheckerboard="true" inkscape:pageopacity="0" inkscape:pageshadow="2" inkscape:window-height="2066" inkscape:window-maximized="1" inkscape:window-width="3840" inkscape:window-x="-11" inkscape:window-y="-11" inkscape:zoom="3.2165693" objecttolerance="10" pagecolor="#ffffff" showgrid="false">
	</sodipodi:namedview>
<g id="g8" transform="matrix(0.65481879,-0.71811984,0.70144637,0.68071157,-34.967568,284.68694)">
	<g id="g6">
		<g id="path4" inkscape:connector-curvature="0" sodipodi:nodetypes="cccccccc">
			<path class="st0" d="M203.9-7L31.8,153.8L281.3,417l172.2-160.7l9-42.4l-76.1-80.2l-51.4-2.4C175.7-36.8,363.2,161.1,203.9-7z"/>
			<g>
				<path class="st1" d="M194.2-17.2C174.9,0.9,155.5,19,136.1,37.1c-30.9,28.8-61.8,57.7-92.7,86.5c-7.1,6.6-14.2,13.3-21.3,19.9
					c-5.4,5-5.5,14-0.3,19.5c8.3,8.7,16.5,17.4,24.8,26.1c19.8,20.9,39.7,41.8,59.5,62.8c24,25.3,48,50.7,72,76
					c20.8,21.9,41.6,43.8,62.3,65.8c10.1,10.7,19.9,21.8,30.4,32.1c0.2,0.2,0.3,0.3,0.5,0.5c5.2,5.5,14.2,5.9,19.7,0.9
					c17.5-16.4,35.1-32.7,52.6-49.1c29.9-27.9,59.7-55.7,89.6-83.6c8.9-8.3,17.8-16.6,26.7-24.9c2.9-2.7,5.8-5.1,7.1-9.3
					c2.1-7.1,3.1-14.9,4.7-22.2c1-4.9,2.1-9.8,3.1-14.7c0.7-3.5,1.9-7.3,1.5-10.8c-0.7-6.4-6.3-10.9-10.5-15.4
					c-13.7-14.5-27.4-28.9-41.1-43.4c-9.3-9.8-18.3-20.3-28.1-29.7c-6.3-6.1-16.9-4.9-25-5.2c-10.1-0.5-20.1-0.9-30.2-1.4
					c-2-0.1-4-0.2-6-0.3c3.3,1.5,6.5,3,9.8,4.5c-22.4-23.7-44.9-47.3-67.3-71c-0.7-0.8-1.5-1.6-2.2-2.4
					c-6.6,6.2-13.3,12.4-19.9,18.6c2.7,2.8,5.4,5.7,8.1,8.5c12.5,13.1,32.4-5.5,19.9-18.6c-12.7-13.4-25.3-26.7-38-40.1
					c-10.5-11.1-21-22.2-31.6-33.3c-12.5-13.1-32.4,5.5-19.9,18.6c22.4,23.7,44.9,47.3,67.3,71c0.7,0.8,1.5,1.6,2.2,2.4
					c6.6-6.2,13.3-12.4,19.9-18.6c-2.7-2.8-5.4-5.7-8.1-8.5c-12.5-13.1-32.4,5.5-19.9,18.6c7,7.4,14.1,14.9,21.1,22.3
					c11.6,12.2,23.2,24.4,34.8,36.7c6.7,7.1,14,18.2,24.3,18.9c4.7,0.3,9.5,0.4,14.3,0.7c12.1,0.6,24.2,1.1,36.2,1.7
					c-3.3-1.5-6.5-3-9.8-4.5c22.2,23.4,44.3,46.8,66.5,70.1c3.2,3.4,6.4,6.7,9.6,10.1c-1.1-4.5-2.3-9-3.4-13.4
					c-3,14.1-6,28.3-9,42.4c1.2-2,2.5-4.1,3.7-6.1c-19.4,18.1-38.8,36.2-58.1,54.3c-30.9,28.8-61.8,57.7-92.7,86.5
					c-7.1,6.6-14.2,13.3-21.3,19.9c6.6,0.3,13.1,0.6,19.7,0.9c-8.3-8.7-16.5-17.4-24.8-26.1c-19.8-20.9-39.7-41.8-59.5-62.8
					c-24-25.3-48-50.7-72-76c-20.8-21.9-41.6-43.8-62.3-65.8c-10.1-10.6-19.7-22.2-30.4-32.1c-0.2-0.1-0.3-0.3-0.5-0.5
					c-0.1,6.5-0.2,13-0.3,19.5c19.4-18.1,38.8-36.2,58.1-54.3c30.9-28.8,61.8-57.7,92.7-86.5c7.1-6.6,14.2-13.3,21.3-19.9
					C226.4-8.7,207.1-29.2,194.2-17.2z"/>
			</g>
		</g>
	</g>
	<g id="path829" inkscape:connector-curvature="0" sodipodi:nodetypes="cccc">
		<g>
			<path class="st0" d="M43.8,161.1c10.5-22.4,20.9-44.8,31.4-67.2c16.6-35.5,33.2-71.1,49.8-106.6c3.8-8.2,7.7-16.4,11.5-24.6
				c-7.3,0.6-14.6,1.3-22,1.9c18.6,19.9,37.3,39.9,55.9,59.8c0.1-6.5,0.2-13,0.3-19.5c-16.8,15.7-33.5,31.3-50.3,47
				c-26.6,24.8-53.2,49.7-79.8,74.5c-6.1,5.7-12.3,11.5-18.4,17.2c-12.8,12,6.5,32.4,19.4,20.4c16.8-15.7,33.5-31.3,50.3-47
				c26.6-24.8,53.2-49.7,79.8-74.5c6.1-5.7,12.3-11.5,18.4-17.2c5.4-5.1,5.5-14,0.3-19.5C171.7-14.2,153-34.1,134.4-54
				c-5.7-6.1-18.1-6.2-22,1.9C102-29.7,91.5-7.3,81,15.1C64.4,50.7,47.9,86.2,31.3,121.8c-3.8,8.2-7.7,16.4-11.5,24.6
				c-3.1,6.7-2,14.8,4.9,19.1C30.7,169.1,40.6,167.8,43.8,161.1z"/>
		</g>
	</g>
</g>
<g id="g10">
</g>
<g id="g12">
</g>
<g id="g14">
</g>
<g id="g16">
</g>
<g id="g18">
</g>
<g id="g20">
</g>
<g id="g22">
</g>
<g id="g24">
</g>
<g id="g26">
</g>
<g id="g28">
</g>
<g id="g30">
</g>
<g id="g32">
</g>
<g id="g34">
</g>
<g id="g36">
</g>
<g id="g38">
</g>
</svg>
