<?xml version="1.0" encoding="utf-8"?>
<!-- Generator: Adobe Illustrator 24.0.1, SVG Export Plug-In . SVG Version: 6.00 Build 0)  -->
<svg version="1.1"
	 id="svg46" inkscape:version="0.92.4 (5da689c313, 2019-01-14)" sodipodi:docname="rss.svg" xmlns:cc="http://creativecommons.org/ns#" xmlns:dc="http://purl.org/dc/elements/1.1/" xmlns:inkscape="http://www.inkscape.org/namespaces/inkscape" xmlns:rdf="http://www.w3.org/1999/02/22-rdf-syntax-ns#" xmlns:sodipodi="http://sodipodi.sourceforge.net/DTD/sodipodi-0.dtd" xmlns:svg="http://www.w3.org/2000/svg"
	 xmlns="http://www.w3.org/2000/svg" xmlns:xlink="http://www.w3.org/1999/xlink" x="0px" y="0px" viewBox="0 0 1000 1000"
	 style="enable-background:new 0 0 1000 1000;" xml:space="preserve">
<style type="text/css">
	.st0{fill:#FFFFFF;}
</style>
<sodipodi:namedview  bordercolor="#666666" borderopacity="1" gridtolerance="10" guidetolerance="10" id="namedview48" inkscape:current-layer="svg46" inkscape:cx="500" inkscape:cy="500" inkscape:pageopacity="0" inkscape:pageshadow="2" inkscape:window-height="2066" inkscape:window-maximized="1" inkscape:window-width="3840" inkscape:window-x="-11" inkscape:window-y="-11" inkscape:zoom="0.236" objecttolerance="10" pagecolor="#ffffff" showgrid="false">
	</sodipodi:namedview>
<g id="g44">
	<g id="g12">
		<g id="g10">
			<path id="path4" class="st0" d="M136.8,736.4C66.9,736.4,10,793.2,10,863.2C10,933.1,66.9,990,136.8,990s126.8-56.9,126.8-126.8
				C263.6,793.2,206.7,736.4,136.8,736.4z"/>
		</g>
	</g>
	<g id="g14">
	</g>
	<g id="g16">
	</g>
	<g id="g18">
	</g>
	<g id="g20">
	</g>
	<g id="g22">
	</g>
	<g id="g24">
	</g>
	<g id="g26">
	</g>
	<g id="g28">
	</g>
	<g id="g30">
	</g>
	<g id="g32">
	</g>
	<g id="g34">
	</g>
	<g id="g36">
	</g>
	<g id="g38">
	</g>
	<g id="g40">
	</g>
	<g id="g42">
	</g>
</g>
<g>
	<g>
		<path class="st0" d="M110.2,573.6c18.6,0,37.2,1.2,55.6,3.7c-8.9-1.2-17.7-2.4-26.6-3.6c36.6,4.9,72.4,14.7,106.5,29
			c-8-3.4-15.9-6.7-23.9-10.1c33.2,14.1,64.5,32.4,93.1,54.5c-6.7-5.2-13.5-10.4-20.2-15.6c28,21.7,53.1,46.9,74.9,74.9
			c-5.2-6.7-10.4-13.5-15.6-20.2c22.1,28.6,40.4,59.9,54.5,93.1c-3.4-8-6.7-15.9-10.1-23.9c14.3,34.1,24.1,69.9,29,106.5
			c-1.2-8.9-2.4-17.7-3.6-26.6c2.4,18.4,3.6,37,3.7,55.6c-0.5,13.8,2.4,26.6,8.6,38.5c4,12.4,10.9,23.1,20.7,32.2
			c9.1,9.8,19.8,16.6,32.2,20.7c11.9,6.3,24.8,9.1,38.5,8.6c8.9-1.2,17.7-2.4,26.6-3.6c16.9-4.8,31.6-13.3,44.1-25.7
			c17.9-19.5,29.3-43.6,29.3-70.7c-0.1-31.2-3.9-62.2-8.8-93.1c-3.4-21.4-8.5-42.5-15.3-63.1c-9.1-28-20.7-55.4-33.9-81.7
			c-9.5-18.8-20.4-36.9-32.6-54.1c-17-24-35.4-47.4-55.8-68.6c-20.3-21-42.9-38.9-66.1-56.7c-40.3-30.9-85.8-53-133.3-70.6
			c-22.8-8.4-46.3-14.8-70.2-19.2c-33.3-6-67.3-10.2-101.1-10.2c-13.8-0.5-26.6,2.4-38.5,8.6c-12.4,4-23.1,10.9-32.2,20.7
			c-9.8,9.1-16.6,19.8-20.7,32.2c-6.3,11.9-9.1,24.8-8.6,38.5c1.2,8.9,2.4,17.7,3.6,26.6c4.8,16.9,13.3,31.6,25.7,44.1
			C59.1,562.3,83.1,573.6,110.2,573.6L110.2,573.6z"/>
	</g>
</g>
<g>
	<g>
		<path class="st0" d="M110.1,210.7c35.3,0,70.6,2.4,105.6,7.1c-8.9-1.2-17.7-2.4-26.6-3.6c53,7.2,105.3,19.8,155.7,37.7
			c14,5,27.9,10.4,41.6,16.2c-8-3.4-15.9-6.7-23.9-10.1c48.3,20.4,94.5,45.6,137.7,75.2c12.3,8.4,24.3,17.2,36.1,26.3
			c-6.7-5.2-13.5-10.4-20.2-15.6c41.1,31.8,79.1,67.6,113.2,106.9c9.7,11.2,19.1,22.7,28.2,34.5c-5.2-6.7-10.4-13.5-15.6-20.2
			c31.9,41.4,59.7,85.9,82.8,132.8c6.6,13.5,12.9,27.2,18.7,41c-3.4-8-6.7-15.9-10.1-23.9c20.6,49,36.2,100,46.4,152.1
			c2.9,15,5.4,30.1,7.5,45.2c-1.2-8.9-2.4-17.7-3.6-26.6c4.7,35,7,70.3,7.1,105.6c-0.5,13.8,2.4,26.6,8.6,38.5
			c4,12.4,10.9,23.1,20.7,32.2c9.1,9.8,19.8,16.6,32.2,20.7c11.9,6.3,24.8,9.1,38.5,8.6c8.9-1.2,17.7-2.4,26.6-3.6
			c16.9-4.8,31.6-13.3,44.1-25.7c18-19.6,29.3-43.6,29.3-70.7c0-50.3-5.4-100.2-13.2-149.8c-6.4-40.1-15.9-79.8-28.4-118.4
			c-6.2-19.1-13.1-37.9-20.8-56.4c-10.7-26-21.7-51.8-34.4-76.9c-17.8-35.3-38.3-69.2-61.2-101.4c-27.5-38.6-57.3-75.8-90.2-109.9
			c-32.9-34.1-69.1-64-106.7-92.8C566.2,132.3,488.2,92.3,406.1,62c-37.9-14-77-24.9-116.6-32.8c-48.8-9.7-98.7-16-148.4-17.9
			c-10.3-0.4-20.6-0.6-30.9-0.6c-13.8-0.5-26.6,2.4-38.5,8.6c-12.4,4-23.1,10.9-32.2,20.7c-9.8,9.1-16.6,19.8-20.7,32.2
			c-6.3,11.9-9.1,24.8-8.6,38.5c1.2,8.9,2.4,17.7,3.6,26.6c4.8,16.9,13.3,31.6,25.7,44.1C58.9,199.4,83,210.7,110.1,210.7
			L110.1,210.7z"/>
	</g>
</g>
</svg>
